<svg id="Layer_3" enable-background="new 0 0 64 64" height="512" viewBox="0 0 64 64" width="512" xmlns="http://www.w3.org/2000/svg"><g><path d="m55.62 12.053-8.62-7.053-8.62 7.053c-1.206.986-2.079 2.36-2.309 3.901-.566 3.789 2.354 7.046 6.035 7.046 1.042 0 2.039-.308 2.894-.851v.245c0 2.351-.696 4.649-2 6.606h8c-1.304-1.956-2-4.255-2-6.606v-.245c.854.543 1.852.851 2.894.851 3.681 0 6.601-3.257 6.036-7.046-.23-1.541-1.104-2.914-2.31-3.901z" fill="#f4b2b0"/><path d="m23 42c-.031 0-.06.004-.091.005.056-.328.091-.662.091-1.005 0-3.314-2.686-6-6-6s-6 2.686-6 6c0 .343.035.677.091 1.005-.031-.001-.06-.005-.091-.005-3.314 0-6 2.686-6 6s2.686 6 6 6c1.248 0 2.406-.381 3.366-1.033-.121 1.418-.529 2.818-1.259 4.096l-1.107 1.937h10l-1.107-1.937c-.73-1.278-1.139-2.678-1.259-4.096.96.652 2.118 1.033 3.366 1.033 3.314 0 6-2.686 6-6s-2.686-6-6-6z" fill="#f4b2b0"/><g fill="#b3404a"><path d="m16.323 28.736c.19.175.433.263.676.263.242 0 .484-.087.675-.263l9.523-8.729c1.78-1.632 2.801-3.953 2.801-6.368 0-4.764-3.875-8.639-8.638-8.639-1.732 0-3.345.821-4.361 2.207-1.018-1.387-2.63-2.207-4.36-2.207-4.765 0-8.64 3.875-8.64 8.64 0 2.415 1.021 4.736 2.802 6.368zm-3.684-21.736c1.143 0 2.204.567 2.837 1.519l.69 1.036c.186.278.498.445.832.445h.001c.334 0 .646-.167.831-.445l.692-1.037c.633-.951 1.694-1.518 2.838-1.518 3.66 0 6.638 2.978 6.638 6.639 0 1.856-.784 3.64-2.151 4.894l-8.848 8.109-8.848-8.109c-1.368-1.254-2.152-3.039-2.152-4.894 0-3.661 2.979-6.639 6.64-6.639z"/><path d="m5.999 62.999h21.999c1.642 0 3.089-.806 4-2.031.912 1.225 2.358 2.031 4 2.031h21.999c2.758 0 5-2.243 5-5v-21.999c0-1.641-.805-3.088-2.03-4 1.225-.912 2.031-2.359 2.031-4.001v-21.999c0-2.757-2.242-5-5-5h-21.998c-1.642 0-3.089.806-4.001 2.032-.912-1.227-2.359-2.032-4.001-2.032h-21.999c-2.758 0-5 2.243-5 5v22c0 1.642.805 3.088 2.031 4-1.225.912-2.031 2.359-2.031 4v22c0 2.756 2.242 4.999 5 4.999zm26-32.032c.292.393.639.739 1.031 1.031-.393.292-.739.639-1.032 1.032-.292-.393-.638-.739-1.031-1.031.393-.292.74-.639 1.032-1.032zm28.999 27.032c0 1.654-1.346 3-3 3h-21.999c-1.654 0-3-1.346-3-3v-21.999c0-1.654 1.346-3 3-3h21.999c1.654 0 3 1.346 3 3zm-27.998-51.999c0-1.654 1.346-3 3-3h21.999c1.654 0 3 1.346 3 3v22c0 1.654-1.346 3-3 3h-21.999c-1.654 0-3-1.346-3-3zm-30.001 0c0-1.654 1.346-3 3-3h21.999c1.654 0 3 1.346 3 3v22c0 1.654-1.346 3-3 3h-21.999c-1.654 0-3-1.346-3-3zm0 30c0-1.654 1.346-3 3-3h21.999c1.654 0 3 1.346 3 3v22c0 1.654-1.346 3-3 3h-21.999c-1.654 0-3-1.346-3-3z"/><path d="m42.105 23.999c.614 0 1.224-.09 1.812-.266-.207 1.68-.801 3.288-1.75 4.711-.204.307-.224.701-.049 1.026.174.325.513.528.882.528h7.998c.369 0 .708-.203.882-.528.175-.325.155-.72-.049-1.026-.949-1.424-1.545-3.033-1.751-4.712.588.176 1.197.266 1.812.266 2.069 0 4.032-.899 5.385-2.468 1.352-1.568 1.949-3.655 1.641-5.727-.258-1.723-1.204-3.331-2.665-4.526l-8.62-7.053c-.369-.3-.897-.299-1.267 0l-8.621 7.054c-1.461 1.195-2.407 2.803-2.665 4.527-.309 2.071.289 4.158 1.641 5.726 1.352 1.569 3.315 2.468 5.384 2.468zm-5.047-7.898c.185-1.231.878-2.394 1.954-3.274l7.987-6.535 7.987 6.535c1.076.881 1.77 2.043 1.954 3.274.226 1.517-.192 2.982-1.179 4.125-.972 1.127-2.382 1.774-3.869 1.774-.827 0-1.642-.24-2.356-.694-.305-.194-.693-.208-1.017-.033-.319.174-.519.509-.52.873l-.002.249c0 1.956.439 3.864 1.28 5.605h-4.557c.841-1.741 1.278-3.648 1.278-5.601l.001-.245c.002-.366-.196-.703-.516-.879s-.711-.165-1.02.031c-.717.454-1.532.694-2.358.694-1.487 0-2.897-.646-3.869-1.774-.986-1.144-1.404-2.609-1.178-4.125z"/><path d="m47.799 34.399c-.379-.504-1.222-.503-1.601 0l-9 12c-.267.355-.267.844 0 1.2l9 12c.189.252.485.4.801.4.314 0 .61-.148.8-.4l9-12c.267-.355.267-.844 0-1.2zm-.8 22.934-7.75-10.333 7.75-10.333 7.749 10.333z"/><path d="m11 54.999c.694 0 1.378-.102 2.031-.299-.191.653-.457 1.277-.794 1.867l-1.106 1.937c-.177.31-.175.689.004.998.179.308.509.498.865.498h9.999c.357 0 .687-.189.865-.498.179-.308.181-.688.003-.998l-1.106-1.937c-.337-.589-.603-1.213-.794-1.867.653.198 1.337.3 2.032.3 3.86 0 7-3.14 7-7 0-3.521-2.611-6.442-6-6.929 0-.024 0-.047 0-.071 0-3.86-3.14-7-6.999-7-3.86 0-7 3.14-7 7v.071c-3.389.486-6 3.408-6 6.929 0 3.859 3.14 6.999 7 6.999zm-.031-12c.021.002.084.005.104.005.327.035.579-.122.774-.347.193-.225.277-.524.229-.817-.052-.308-.076-.583-.076-.84 0-2.757 2.242-5 5-5 2.757 0 4.999 2.243 4.999 5 0 .254-.024.529-.077.84-.049.293.035.592.229.817.19.221.468.348.758.347.023 0 .07-.003.11-.004 2.748.01 4.98 2.249 4.98 5 0 2.757-2.242 5-5 5-1.005 0-1.975-.297-2.804-.86-.317-.215-.733-.229-1.067-.036-.332.195-.523.563-.491.947.138 1.621.604 3.138 1.388 4.508l.252.44h-6.554l.252-.44c.782-1.37 1.249-2.886 1.388-4.507.032-.384-.158-.753-.491-.948-.332-.193-.749-.18-1.067.036-.829.563-1.799.86-2.804.86-2.758 0-5-2.243-5-5-.001-2.758 2.241-5 4.968-5.001z"/></g></g></svg>