<svg height="511pt" viewBox="0 -13 511.99979 511" width="511pt" xmlns="http://www.w3.org/2000/svg"><path d="m291.574219 473.847656-199.605469-114.820312c-9.546875-5.488282-12.851562-17.765625-7.335938-27.273438l180.378907-311.277344c5.511719-9.511718 17.832031-12.800781 27.378906-7.3125l199.605469 114.820313c9.542968 5.492187 12.847656 17.765625 7.335937 27.277344l-180.382812 311.277343c-5.511719 9.511719-17.832031 12.800782-27.375 7.308594zm0 0" fill="#ff678b"/><path d="m260.023438 443.875h-230.023438c-11 0-20-9-20-20v-360c0-11 9-20 20-20h230.023438c11 0 20 9 20 20v360c0 11-9 20-20 20zm0 0" fill="#fff"/><path d="m98.625 219.980469 27.171875-27.464844 20.382813-20.601563 19.679687 21.332032 26.242187 28.445312c10.824219 11.730469 10.507813 30.601563-.699218 41.933594-11.210938 11.332031-29.238282 11-40.0625-.730469l-6.558594-7.113281-6.792969 6.867188c-11.210937 11.332031-29.238281 11-40.0625-.730469-10.824219-11.734375-10.511719-30.605469.699219-41.9375zm0 0" fill="#ff678b"/><path d="m404.984375 249.167969c-7.535156 0-12.441406-8.480469-8.644531-15.027344l30.070312-51.925781c6.441406-11.121094 23.761719-1.101563 17.3125 10.035156-5.695312 9.832031-11.386718 19.660156-17.082031 29.492188-4.101563 7.078124-11.429687 27.425781-21.65625 27.425781zm0 0"/><path d="m511.164062 137.667969c-3.726562-13.910157-15.984374-19.394531-27.261718-25.882813-15.140625-8.714844-30.285156-17.429687-45.425782-26.144531-37.777343-21.742187-75.550781-43.484375-113.328124-65.222656-9.21875-5.308594-18.4375-10.613281-27.65625-15.917969-14.34375-8.246094-32.753907-3.332031-41.035157 10.980469l-10.675781 18.425781h-215.769531c-16.546875 0-30.011719 13.472656-30.011719 30.027344v360.3125c0 16.554687 13.464844 30.027344 30.011719 30.027344h115.992187 71.472656c13.113282 0 18.371094-.597657 29.570313 5.84375 21.605469 12.4375 61.371094 45.191406 80.675781 11.839843 53.773438-92.839843 107.550782-185.679687 161.324219-278.519531 8.71875-15.046875 27.074219-37.296875 22.117187-55.769531-2.078124-7.769531 2.082032 7.757812 0 0zm-241.042968 286.578125c0 5.515625-4.480469 10.011718-10.003906 10.011718h-230.105469c-5.511719 0-10.003907-4.496093-10.003907-10.011718v-360.3125c0-5.527344 4.492188-10.011719 10.003907-10.011719h230.105469c5.523437 0 10.003906 4.484375 10.003906 10.011719zm220.746094-273.867188-180.449219 311.550782c-2.769531 4.785156-8.941407 6.425781-13.742188 3.652343l-24.261719-13.960937c10.433594-4.683594 17.71875-15.191406 17.71875-27.375v-360.3125c0-13.742188-9.273437-25.363282-21.890624-28.898438l5.523437-9.527344c2.769531-4.78125 8.945313-6.425781 13.746094-3.652343 34.890625 20.082031 69.78125 40.160156 104.671875 60.242187 23.023437 13.246094 46.042968 26.496094 69.066406 39.746094 7.597656 4.371094 37.097656 15.609375 29.617188 28.535156zm0 0"/><path d="m171.136719 282.152344c34.078125 0 51.105469-42.410156 28.390625-67.058594-8.277344-8.976562-16.554688-17.953125-24.828125-26.929688-5.878907-6.371093-18.152344-25.9375-28.292969-26.105468-9.878906-.167969-22.222656 18.070312-28.179688 24.097656-8.890624 8.992188-17.78125 17.984375-26.671874 26.976562-29.242188 29.566407 4.019531 83.839844 43.507812 64.125v18.878907h-20.007812c-12.84375 0-12.863282 20.015625 0 20.015625h60.03125c12.84375 0 12.863281-20.015625 0-20.015625h-20.015626v-17.898438c4.941407 2.464844 10.394532 3.816407 16.066407 3.914063.226562 0-5.671875-.097656 0 0zm-40.207031-26.3125c-11.992188 12.101562-30.851563 1.523437-30.851563-14.304688 0-9.128906 5.820313-14.453125 11.632813-20.328125 11.421874-11.550781 22.847656-23.105469 34.273437-34.65625l38.835937 42.113281c17.1875 18.640626-8.765624 44.167969-27.261718 26.371094-10.957032-10.539062-15.707032-10.25-26.628906.804688zm0 0"/><path d="m240.359375 193.78125c-5.523437 0-10.003906-4.480469-10.003906-10.011719v-60.050781c0-12.851562 20.007812-12.871094 20.007812 0v60.050781c0 5.53125-4.476562 10.011719-10.003906 10.011719zm0 0"/><path d="m240.382812 93.691406c-12.847656 0-12.875-20.015625-.011718-20.015625h.011718c12.84375 0 12.863282 20.015625 0 20.015625zm0 0"/><path d="m49.851562 414.28125c-12.84375 0-12.875-20.015625-.007812-20.015625h.007812c12.84375 0 12.863282 20.015625 0 20.015625zm0 0"/></svg>