<svg id="Layer_1" enable-background="new 0 0 512 512" height="512" viewBox="0 0 512 512" width="512" xmlns="http://www.w3.org/2000/svg"><g><g><path d="m50.949 510.09c-1.422 1.266-3.211 1.91-5.007 1.91-1.612 0-3.232-.516-4.583-1.57-7.348-5.693-13.487-10.969-18.558-15.701-15.97-14.88-21.522-24.435-21.819-24.959-1.598-2.815-1.216-6.323.934-8.727 23.544-26.246 75.93-80.088 99.319-101.313 2.956-2.673 7.49-2.582 10.319.233l23.87 23.672 16.727 16.599c2.843 2.829 2.963 7.391.269 10.368-20.441 22.533-72.601 73.674-101.471 99.488z" fill="#f79e60"/><path d="m50.949 510.09c-1.422 1.266-3.211 1.91-5.007 1.91-1.612 0-3.232-.516-4.583-1.57-7.348-5.693-13.487-10.969-18.558-15.701 51.276-46.169 93.435-90.393 112.622-111.094l16.727 16.599c2.843 2.829 2.963 7.391.269 10.368-20.44 22.533-72.6 73.674-101.47 99.488z" fill="#d77d41"/><g><path d="m206.134 400.227c-3.876 3.621-8.551 8.027-13.325 12.532-5.799 5.46-11.79 11.111-16.62 15.588-1.422 1.323-3.26 2.002-5.099 2.002-1.528 0-3.048-.46-4.357-1.4-6.5-4.647-12.61-9.343-18.346-14.018-42.781-34.804-64.671-68.207-65.696-69.798-1.86-2.878-1.535-6.655.799-9.173 4.434-4.788 10.121-10.814 15.616-16.634 4.583-4.852 9.067-9.604 12.681-13.473 1.379-1.492 3.317-2.355 5.354-2.383 2.058-.049 3.996.757 5.432 2.192l68.653 68.681 15.1 15.1c1.443 1.443 2.228 3.402 2.192 5.432-.036 2.042-.892 3.973-2.384 5.352z" fill="#0b687f"/><path d="m206.134 400.227c-3.876 3.621-8.551 8.027-13.325 12.532-5.799 5.46-11.79 11.111-16.62 15.588-1.422 1.323-3.26 2.002-5.099 2.002-1.528 0-3.048-.46-4.357-1.4-6.5-4.647-12.61-9.343-18.346-14.018 19.81-17.193 33.63-30.801 42.838-40.589l15.1 15.1c1.443 1.443 2.228 3.402 2.192 5.432-.035 2.043-.891 3.974-2.383 5.353z" fill="#124a6a"/></g><path d="m449.583 364.271c-83.222 83.221-218.639 83.228-301.861.007-3.565-3.565-6.974-7.228-10.241-10.976-72.833-83.752-69.41-211.226 10.248-290.883s207.125-83.073 290.878-10.241c3.748 3.268 7.412 6.676 10.977 10.241 83.221 83.221 83.222 218.63-.001 301.852z" fill="#dcfff1"/><path d="m449.583 364.271c-83.222 83.221-218.639 83.228-301.861.007-3.565-3.565-6.974-7.228-10.241-10.976 83.753 72.832 211.227 69.409 290.885-10.248s83.074-207.124 10.241-290.876c3.748 3.268 7.412 6.676 10.977 10.241 83.221 83.221 83.222 218.63-.001 301.852z" fill="#87ffd6"/><path d="m417.184 331.872c-65.357 65.356-171.706 65.364-237.063.007-3.572-3.572-6.952-7.263-10.135-11.083-55.024-65.788-51.643-164.194 10.142-225.979s160.192-65.166 225.98-10.142c3.812 3.19 7.504 6.57 11.076 10.142 65.357 65.357 65.357 171.698 0 237.055z" fill="#81ebeb"/><path d="m417.184 331.872c-65.357 65.356-171.706 65.364-237.063.007-3.572-3.572-6.952-7.263-10.135-11.083 65.788 55.024 164.195 51.643 225.98-10.142s65.166-160.191 10.142-225.979c3.812 3.19 7.504 6.57 11.076 10.142 65.357 65.357 65.357 171.698 0 237.055z" fill="#00cec8"/></g><path d="m371.61 115.63c-.211-3.761-3.179-6.781-6.935-7.06-.315-.023-31.899-2.332-66.022-2.332s-65.707 2.309-66.022 2.332c-3.756.278-6.724 3.299-6.935 7.06-.022.407-2.284 41.393-2.331 97.721.047 56.316 2.309 97.301 2.331 97.708.211 3.761 3.178 6.781 6.935 7.06.314.023 31.899 2.333 66.022 2.333s65.708-2.31 66.022-2.333c3.757-.278 6.724-3.299 6.935-7.06.022-.407 2.284-41.392 2.331-97.72-.046-56.317-2.308-97.302-2.331-97.709z" fill="#dcfff1"/><g fill="#ff6b81"><path d="m298.653 201.344c0-22.731-41.71-26.696-41.71 3.623 0 33.78 41.71 45.083 41.71 45.083s41.71-11.304 41.71-45.083c0-30.319-41.71-26.354-41.71-3.623z"/><g><circle cx="264.123" cy="146.725" r="7.501"/><circle cx="333.183" cy="279.965" r="7.501"/><circle cx="264.123" cy="146.725" r="7.501"/><circle cx="333.183" cy="279.965" r="7.501"/></g></g></g></svg>